<?xml version="1.0" encoding="UTF-8"?>
<svg id="Layer_1" xmlns="http://www.w3.org/2000/svg" version="1.1" viewBox="0 0 550 550">
  <!-- Generator: Adobe Illustrator 30.1.0, SVG Export Plug-In . SVG Version: 2.1.1 Build 136)  -->
  <defs>
    <style>
      .st0 {
        fill: #F1F5F9;
      }
      .st1 {
        fill: #22C7A9
      }
    </style>
  </defs>
  <polygon class="st0" points="292.25 184.51 243.2 367.59 144.71 130.44 105.06 130.44 28.41 416.47 27.59 419.56 61.58 419.56 126 179.12 224.24 419.56 263.75 419.56 326.87 184.51 292.25 184.51"/>
  <path class="st1" d="M519.98,212.43c-4.14-18.14-12.01-33.51-23.38-45.69-11.35-12.14-25.47-21.34-41.97-27.32-16.42-5.96-33.8-8.98-51.66-8.98h-96.22l-8.2,30.6h89.5c20.93,0,38.51,3.3,52.26,9.8,13.67,6.48,24.28,15.05,31.53,25.47,7.25,10.45,11.67,22.56,13.11,35.99,1.45,13.55.23,27.7-3.62,42.05-3.85,14.4-10.26,28.62-19.03,42.27-8.76,13.62-19.83,25.92-32.92,36.56-13.08,10.62-28.52,19.33-45.91,25.9-17.36,6.55-36.81,9.88-57.82,9.88h-29.26l-8.2,30.6h38.6c17.83,0,36.76-3.01,56.27-8.94,19.51-5.92,38.34-15.01,55.99-27.01,17.63-11.99,33.5-27.09,47.18-44.89,13.69-17.83,23.9-39.05,30.35-63.08,6.38-23.83,7.52-45.09,3.39-63.2Z"/>
</svg>